# xmcd
#
# Track frame offsets:
#	150
#	22977
#	44272
#	61677
#	82150
#	98015
#	110662
#	119415
#	131207
#	154132
#	172117
#	196622
#	209085
#	224345
#	242937
#	263405
#	281825
#	299152
#
# Disc length: 4234 seconds
#
# Revision: 1
# Processed by: cddbd v1.5.2PL0 Copyright (c) Steve Scherf et al.
# Submitted via: audiograbber 1.83.01
#
DISCID=19108812
DTITLE=Various Artist - Blue Rose Collection Vol. 1
DYEAR=1996
DGENRE=Rock
TTITLE0=The Bel-Vistas - No Big Surprise
TTITLE1=The Bel-Vistas - Don't Make Me Beg You
TTITLE2=Continental Drifters - Get Over It
TTITLE3=Continental Drifters - A Song For You
TTITLE4=The dB's - This Is Where I Belong
TTITLE5=The dB's - Lines And Dots
TTITLE6=Paul Sanchez - Still In Love With You
TTITLE7=Kate Jacobs - Geroge Says
TTITLE8=Kate Jacobs - A Sister
TTITLE9=Health and Happiness Show - Many Kindnesses
TTITLE10=Health and Happiness Show - Don't Have Far To Fall
TTITLE11=Cowboy Mouth - My Little Blue One
TTITLE12=Icecream Hands - Welcome Home Mr. Khan
TTITLE13=Big Whiskey - The Distances
TTITLE14=Big Whiskey - Lovers Train
TTITLE15=The Shines - Went To Town
TTITLE16=Peter Wells - Sweet Revenge
TTITLE17=Peter Wells - I'm With You
EXTD=
EXTT0=
EXTT1=
EXTT2=
EXTT3=
EXTT4=
EXTT5=
EXTT6=
EXTT7=
EXTT8=
EXTT9=
EXTT10=
EXTT11=
EXTT12=
EXTT13=
EXTT14=
EXTT15=
EXTT16=
EXTT17=
PLAYORDER=
